<svg xmlns="http://www.w3.org/2000/svg" xmlns:xlink="http://www.w3.org/1999/xlink" width="338" height="54" viewBox="0 0 338 54">
  <defs>
    <clipPath id="clip-tvflux_logo_app">
      <rect width="338" height="54"/>
    </clipPath>
  </defs>
  <g id="tvflux_logo_app" data-name="tvflux logo app" clip-path="url(#clip-tvflux_logo_app)">
    <path id="Path_24" data-name="Path 24" d="M13.658,12.1H8.2V29H5.985V12.1H.541v-2H13.658Zm17.587-2L24.245,29H21.806L14.95,10.095h2.465l5.234,14.99a8.9,8.9,0,0,1,.382,1.674h.053a8.212,8.212,0,0,1,.435-1.7l5.339-14.963Z" transform="translate(99 6)" fill="#fff"/>
    <path id="Path_25" data-name="Path 25" d="M10.151,29.33a8.8,8.8,0,0,1-6.618-2.643A9.49,9.49,0,0,1,.976,19.8a10.169,10.169,0,0,1,2.6-7.251,8.992,8.992,0,0,1,6.882-2.769A8.581,8.581,0,0,1,17,12.428a9.77,9.77,0,0,1,2.5,6.987A10.006,10.006,0,0,1,16.908,26.6,8.891,8.891,0,0,1,10.151,29.33Zm.185-15.886a4.286,4.286,0,0,0-3.56,1.681,7.008,7.008,0,0,0-1.318,4.449,6.88,6.88,0,0,0,1.318,4.443,4.224,4.224,0,0,0,3.454,1.635,4.267,4.267,0,0,0,3.494-1.589,6.8,6.8,0,0,0,1.292-4.41,7.373,7.373,0,0,0-1.252-4.575A4.083,4.083,0,0,0,10.336,13.443ZM44.178,29H39.973V17.688q0-1.833.158-4.047h-.105a19.916,19.916,0,0,1-.593,2.5L35,29h-3.48L27.013,16.278a24.756,24.756,0,0,1-.593-2.637H26.3q.171,2.795.171,4.9V29H22.636V10.095h6.236L32.735,21.3a15.778,15.778,0,0,1,.672,2.7h.079a27.214,27.214,0,0,1,.751-2.729L38.1,10.095h6.078Zm15.636,0H48.476V10.095h10.9v3.467H52.734v4.206h6.183v3.454H52.734v4.324h7.08Zm4.482.33a2.43,2.43,0,0,1-1.714-.633,2.034,2.034,0,0,1-.686-1.556,1.959,1.959,0,0,1,.705-1.556,2.6,2.6,0,0,1,1.76-.606,2.507,2.507,0,0,1,1.747.613,2.123,2.123,0,0,1-.013,3.125A2.613,2.613,0,0,1,64.3,29.33Zm21.384-1.6a13.606,13.606,0,0,1-6.882,1.6A9.953,9.953,0,0,1,71.607,26.8a9.185,9.185,0,0,1-2.63-6.954,9.709,9.709,0,0,1,2.874-7.264A10.471,10.471,0,0,1,79.5,9.778a15.532,15.532,0,0,1,5.3.831V14.6a10.534,10.534,0,0,0-5.353-1.266,5.746,5.746,0,0,0-4.318,1.72,6.32,6.32,0,0,0-1.668,4.594,6.339,6.339,0,0,0,1.5,4.509A5.274,5.274,0,0,0,79,25.757a5.625,5.625,0,0,0,2.426-.435V21.63H77.638v-3.4H85.68ZM105.983,29h-4.641L100,24.794H93.274L91.942,29H87.328L94.21,10.095h5.049Zm-6.961-7.475-2.03-6.354a8.281,8.281,0,0,1-.316-1.7H96.57a7.211,7.211,0,0,1-.33,1.648l-2.057,6.407Z" transform="translate(137 6)" fill="#fff"/>
  </g>
</svg>
