<svg xmlns="http://www.w3.org/2000/svg" xmlns:xlink="http://www.w3.org/1999/xlink" width="55" height="55" viewBox="0 0 55 55">
  <defs>
    <clipPath id="clip-Favorites">
      <rect width="55" height="55"/>
    </clipPath>
  </defs>
  <g id="Favorites" clip-path="url(#clip-Favorites)">
    <rect width="55" height="55" fill="#fff"/>
    <g id="favorite-24px" transform="translate(16 11)">
      <path id="Path_9" data-name="Path 9" d="M0,0H24V24H0Z" fill="none"/>
      <path id="Path_10" data-name="Path 10" d="M12,21.35l-1.45-1.32C5.4,15.36,2,12.28,2,8.5A5.447,5.447,0,0,1,7.5,3,5.988,5.988,0,0,1,12,5.09,5.988,5.988,0,0,1,16.5,3,5.447,5.447,0,0,1,22,8.5c0,3.78-3.4,6.86-8.55,11.54Z"/>
    </g>
    <path id="Path_15" data-name="Path 15" d="M5.444,5.488H2.163V8.395H5.2v.885H2.163V13H1.179V4.6H5.444ZM10.794,13H9.833v-.937H9.81a2.012,2.012,0,0,1-1.846,1.078,1.973,1.973,0,0,1-1.4-.475,1.644,1.644,0,0,1-.507-1.26q0-1.682,1.98-1.957l1.8-.252q0-1.529-1.236-1.529a2.954,2.954,0,0,0-1.957.738V7.422a3.718,3.718,0,0,1,2.039-.562q2.115,0,2.115,2.238ZM9.833,9.965l-1.447.2a2.35,2.35,0,0,0-1.008.331.955.955,0,0,0-.34.841.916.916,0,0,0,.313.718,1.211,1.211,0,0,0,.835.278,1.542,1.542,0,0,0,1.181-.5,1.79,1.79,0,0,0,.466-1.269ZM17.321,7l-2.391,6h-.943L11.714,7h1.055l1.523,4.359a3.913,3.913,0,0,1,.211.838h.023a3.962,3.962,0,0,1,.188-.814L16.308,7Zm3.539,6.141a2.783,2.783,0,0,1-2.124-.841,3.114,3.114,0,0,1-.794-2.229,3.244,3.244,0,0,1,.826-2.361A2.97,2.97,0,0,1,21,6.859a2.691,2.691,0,0,1,2.095.826,3.276,3.276,0,0,1,.753,2.291,3.223,3.223,0,0,1-.812,2.3A2.844,2.844,0,0,1,20.86,13.141Zm.07-5.473a1.828,1.828,0,0,0-1.465.63,2.587,2.587,0,0,0-.539,1.737,2.447,2.447,0,0,0,.545,1.682,1.852,1.852,0,0,0,1.459.615,1.757,1.757,0,0,0,1.433-.6,2.619,2.619,0,0,0,.5-1.717,2.664,2.664,0,0,0-.5-1.734A1.749,1.749,0,0,0,20.931,7.668Zm7.582.3a1.175,1.175,0,0,0-.727-.193,1.226,1.226,0,0,0-1.028.58,2.682,2.682,0,0,0-.413,1.582V13h-.961V7h.961V8.236h.023A2.1,2.1,0,0,1,27,7.249a1.43,1.43,0,0,1,.943-.354,1.569,1.569,0,0,1,.574.082Zm1.535-2.5a.609.609,0,0,1-.439-.176.593.593,0,0,1-.182-.445.615.615,0,0,1,.621-.627.621.621,0,0,1,.448.179.626.626,0,0,1,0,.888A.615.615,0,0,1,30.048,5.477ZM30.517,13h-.961V7h.961Zm4.729-.059a1.853,1.853,0,0,1-.9.188q-1.576,0-1.576-1.758V7.82H31.741V7h1.031V5.535l.961-.311V7h1.512v.82H33.733V11.2a1.4,1.4,0,0,0,.205.861.818.818,0,0,0,.68.258,1.01,1.01,0,0,0,.627-.2Zm6.105-2.7H37.114a2.244,2.244,0,0,0,.539,1.547,1.858,1.858,0,0,0,1.418.545,2.948,2.948,0,0,0,1.863-.668v.9a3.482,3.482,0,0,1-2.092.574,2.536,2.536,0,0,1-2-.817,3.346,3.346,0,0,1-.727-2.3,3.281,3.281,0,0,1,.794-2.282,2.546,2.546,0,0,1,1.972-.882,2.256,2.256,0,0,1,1.822.762,3.176,3.176,0,0,1,.645,2.115Zm-.984-.814a1.955,1.955,0,0,0-.4-1.295,1.368,1.368,0,0,0-1.1-.463,1.552,1.552,0,0,0-1.154.486,2.207,2.207,0,0,0-.586,1.271Zm2.074,3.357V11.752a2.844,2.844,0,0,0,1.729.58q1.266,0,1.266-.844a.732.732,0,0,0-.108-.407,1.08,1.08,0,0,0-.293-.3,2.255,2.255,0,0,0-.434-.231q-.249-.1-.536-.214a6.9,6.9,0,0,1-.7-.319,2.115,2.115,0,0,1-.5-.363,1.352,1.352,0,0,1-.3-.46,1.627,1.627,0,0,1-.1-.6,1.434,1.434,0,0,1,.193-.747,1.715,1.715,0,0,1,.516-.545,2.4,2.4,0,0,1,.735-.331,3.262,3.262,0,0,1,.853-.111,3.442,3.442,0,0,1,1.395.27V8.1a2.718,2.718,0,0,0-1.523-.434,1.781,1.781,0,0,0-.486.062,1.191,1.191,0,0,0-.372.173.8.8,0,0,0-.24.267.7.7,0,0,0-.085.343.822.822,0,0,0,.085.393.864.864,0,0,0,.249.281,1.9,1.9,0,0,0,.4.223q.234.1.533.217a7.421,7.421,0,0,1,.715.313,2.452,2.452,0,0,1,.539.363,1.42,1.42,0,0,1,.343.466,1.5,1.5,0,0,1,.12.627,1.478,1.478,0,0,1-.2.773,1.682,1.682,0,0,1-.524.545,2.4,2.4,0,0,1-.756.322,3.732,3.732,0,0,1-.9.105A3.4,3.4,0,0,1,42.44,12.783Z" transform="translate(4 33)"/>
  </g>
</svg>
