<svg xmlns="http://www.w3.org/2000/svg" xmlns:xlink="http://www.w3.org/1999/xlink" width="55" height="55" viewBox="0 0 55 55">
  <defs>
    <clipPath id="clip-Favorites">
      <rect width="55" height="55"/>
    </clipPath>
  </defs>
  <g id="Favorites" clip-path="url(#clip-Favorites)">
    <rect width="55" height="55" fill="#fff"/>
    <g id="favorite-24px" transform="translate(16 11)">
      <path id="Path_9" data-name="Path 9" d="M0,0H24V24H0Z" fill="none"/>
      <path id="Path_10" data-name="Path 10" d="M12,21.35l-1.45-1.32C5.4,15.36,2,12.28,2,8.5A5.447,5.447,0,0,1,7.5,3,5.988,5.988,0,0,1,12,5.09,5.988,5.988,0,0,1,16.5,3,5.447,5.447,0,0,1,22,8.5c0,3.78-3.4,6.86-8.55,11.54Z"/>
    </g>
    <text id="Favorites-2" data-name="Favorites" transform="translate(4 33)" font-size="12" font-family="SegoeUI, Segoe UI"><tspan x="0.077" y="13">Favorites</tspan></text>
  </g>
</svg>
