<svg xmlns="http://www.w3.org/2000/svg" xmlns:xlink="http://www.w3.org/1999/xlink" width="55" height="55" viewBox="0 0 55 55">
  <defs>
    <clipPath id="clip-Home">
      <rect width="55" height="55"/>
    </clipPath>
  </defs>
  <g id="Home" clip-path="url(#clip-Home)">
    <rect width="55" height="55" fill="#fff"/>
    <text id="Live_Tv" data-name="Live Tv" transform="translate(8 33)" font-size="12" font-family="SegoeUI, Segoe UI"><tspan x="2.349" y="13">Live Tv</tspan></text>
    <g id="live_tv-24px" transform="translate(16 8)">
      <path id="Path_13" data-name="Path 13" d="M0,0H24V24H0Z" fill="none"/>
      <path id="Path_14" data-name="Path 14" d="M21,6H13.41L16.7,2.71,16,2,12,6,8,2l-.71.71L10.59,6H3A2,2,0,0,0,1,8V20a2.006,2.006,0,0,0,2,2H21a2.006,2.006,0,0,0,2-2V8A2,2,0,0,0,21,6Zm0,14H3V8H21ZM9,10v8l7-4Z"/>
    </g>
    <rect id="Rectangle_21" data-name="Rectangle 21" width="20" height="14" transform="translate(18 15)"/>
    <path id="Polygon_1" data-name="Polygon 1" d="M4,0,8,7H0Z" transform="translate(32.5 18.5) rotate(90)" fill="#fff"/>
  </g>
</svg>
