<svg xmlns="http://www.w3.org/2000/svg" xmlns:xlink="http://www.w3.org/1999/xlink" width="55" height="55" viewBox="0 0 55 55">
  <defs>
    <clipPath id="clip-Home">
      <rect width="55" height="55"/>
    </clipPath>
  </defs>
  <g id="Home" clip-path="url(#clip-Home)">
    <rect width="55" height="55" fill="#fff"/>
    <g id="live_tv-24px" transform="translate(16 9)">
      <path id="Path_7" data-name="Path 7" d="M0,0H24V24H0Z" fill="none"/>
      <path id="Path_8" data-name="Path 8" d="M21,6H13.41L16.7,2.71,16,2,12,6,8,2l-.71.71L10.59,6H3A2,2,0,0,0,1,8V20a2.006,2.006,0,0,0,2,2H21a2.006,2.006,0,0,0,2-2V8A2,2,0,0,0,21,6Zm0,14H3V8H21ZM9,10v8l7-4Z"/>
    </g>
    <text id="Live_Tv" data-name="Live Tv" transform="translate(8 34)" font-size="10" font-family="SegoeUI, Segoe UI"><tspan x="5.291" y="11">Live Tv</tspan></text>
  </g>
</svg>
